<svg id="Слой_1" data-name="Слой 1" xmlns="http://www.w3.org/2000/svg" xmlns:xlink="http://www.w3.org/1999/xlink" viewBox="0 0 696.01 135.01"><defs><style>.cls-1{fill:none;}.cls-2{clip-path:url(#clip-path);}.cls-3{fill:#fff;}</style><clipPath id="clip-path"><rect class="cls-1" width="696.01" height="135.01"/></clipPath></defs><g class="cls-2"><path class="cls-3" d="M0,135H67.5L0,67.5Z"/><path class="cls-3" d="M67.5,135H135V67.5Z"/><path class="cls-3" d="M67.5,0,135,67.5V0Z"/><path class="cls-3" d="M0,0V67.5L67.5,0Z"/><path class="cls-3" d="M196.22,32.05v11.2h14l-23.79,58h17.4L209.14,87h29.69l5.4,14.25h18l-28.41-69.2Zm17.7,42.37,9.92-26.55L234,74.42Z"/><path class="cls-3" d="M305.52,57.53c-2.37-3.91-7.7-8.28-16.22-8.28-13.17,0-23.49,9.44-23.49,25.66,0,16,10.32,25.46,23.49,25.46,7.88,0,13-3.74,15.63-7.4v4.65c0,9.34-7.47,12.59-15.14,12.59a33.61,33.61,0,0,1-19.26-5.9v12.48c5.3,3.15,12.28,5.11,21.82,5.11,16,0,28.31-8.15,28.31-24V50.43H305.52Zm-12,30.94c-7.18,0-11.9-5.41-11.9-13.56-.09-8.36,4.72-13.57,11.9-13.57a16.19,16.19,0,0,1,11.4,4.43V84a16.14,16.14,0,0,1-11.4,4.52"/><path class="cls-3" d="M355.46,61.83,353,50.43H329.41V61.05h10.52v40.2h15.82V70c2.26-3.64,6.69-6.49,14.85-6.49a25.81,25.81,0,0,1,6.19.79V50.14a11.13,11.13,0,0,0-4.42-.79c-10.13,0-15.63,6-16.91,12.48"/><path class="cls-3" d="M410.22,49.25c-16.41,0-28.5,10.62-28.5,26.64s12.09,26.54,28.5,26.54c16.22,0,28.41-10.52,28.41-26.54S426.44,49.25,410.22,49.25Zm0,40.8c-7.57,0-12.68-5.9-12.68-14.16s5.11-14.27,12.68-14.27,12.59,5.89,12.59,14.25S417.69,90,410.22,90"/><path class="cls-3" d="M477.58,49.25a18.53,18.53,0,0,0-15.14,7.11V29.79H446.62v71.46h15.14V94.37c2.49,3.92,7.71,8.06,15.82,8.06,13.17,0,23.5-9.83,23.5-26.54S490.75,49.25,477.58,49.25Zm-4.23,40.8a15.75,15.75,0,0,1-10.91-4.23V65.92a15.53,15.53,0,0,1,10.91-4.3c7.28,0,11.9,5.6,11.9,14.25S480.63,90,473.35,90"/><path class="cls-3" d="M558.68,88.47V69.11c0-12.29-9.44-19.86-24.67-19.86-9.44,0-16.22,2.06-21.24,5.11V66.75A32.78,32.78,0,0,1,531.35,61c7,0,12,2.65,12,9.53V71.8a43.15,43.15,0,0,0-11.2-1.41c-12.39,0-23.69,4.91-23.69,16.21,0,9.25,8.25,15.83,19.27,15.83,8.67,0,13.32-3,16.18-6.74,1.62,4.54,6.62,6.74,11.63,6.74a19.53,19.53,0,0,0,9.44-2V91.32a9.62,9.62,0,0,1-2.55.4c-2.07,0-3.74-.89-3.74-3.25Zm-26,3.25c-5.11,0-8.36-2.36-8.36-5.9,0-4.62,5.31-6.2,10-6.2a32.61,32.61,0,0,1,9,1.27v6a13.4,13.4,0,0,1-10.71,4.81"/><path class="cls-3" d="M608.72,49.25a21.47,21.47,0,0,0-17.6,8.65l-1.57-7.47H566V61.05h10.52v40.2H592.3V65.86c2.26-2.45,5.9-3.73,9.83-3.73,6.39,0,10,3.14,10,9.83v29.29H628V67.44c0-11.9-8.25-18.19-19.26-18.19"/><path class="cls-3" d="M695.91,101.1V90.64h-7.29l-12.18-17.5,16-22.71H676.66L663.79,68.91h-7V29.79H641v71.46h15.82v-21h7.12l14,21H696Z"/></g></svg>