<svg width="147" height="48" viewBox="0 0 147 48" fill="none" xmlns="http://www.w3.org/2000/svg">
<rect width="147" height="48" rx="5" fill="#191413"/>
<path d="M50.5923 21V13.1797H52.7998C53.4801 13.1797 54.0817 13.3301 54.6045 13.6309C55.1273 13.9316 55.5301 14.3595 55.813 14.9146C56.0994 15.4696 56.2445 16.1069 56.248 16.8267V17.3262C56.248 18.0638 56.1048 18.7101 55.8184 19.2651C55.5355 19.8201 55.1291 20.2463 54.5991 20.5435C54.0728 20.8407 53.4587 20.9928 52.7568 21H50.5923ZM51.6235 14.0283V20.1567H52.7085C53.5034 20.1567 54.1211 19.9097 54.5615 19.4155C55.0055 18.9214 55.2275 18.2178 55.2275 17.3047V16.8481C55.2275 15.9601 55.0181 15.2708 54.5991 14.7803C54.1838 14.2861 53.5929 14.0355 52.8267 14.0283H51.6235ZM57.3921 18.0405C57.3921 17.4712 57.5031 16.9591 57.7251 16.5044C57.9507 16.0496 58.2622 15.6987 58.6597 15.4517C59.0607 15.2046 59.5173 15.0811 60.0293 15.0811C60.8206 15.0811 61.4598 15.355 61.9468 15.9028C62.4373 16.4507 62.6826 17.1794 62.6826 18.0889V18.1587C62.6826 18.7244 62.5734 19.2329 62.355 19.6841C62.1401 20.1317 61.8304 20.4808 61.4258 20.7314C61.0247 20.9821 60.5628 21.1074 60.04 21.1074C59.2523 21.1074 58.6131 20.8335 58.1226 20.2856C57.6356 19.7378 57.3921 19.0127 57.3921 18.1104V18.0405ZM58.3911 18.1587C58.3911 18.8032 58.5397 19.3206 58.8369 19.7109C59.1377 20.1012 59.5387 20.2964 60.04 20.2964C60.5449 20.2964 60.946 20.0994 61.2432 19.7056C61.5404 19.3081 61.689 18.7531 61.689 18.0405C61.689 17.4032 61.5368 16.8875 61.2324 16.4937C60.9316 16.0962 60.5306 15.8975 60.0293 15.8975C59.5387 15.8975 59.1431 16.0926 58.8423 16.4829C58.5415 16.8732 58.3911 17.4318 58.3911 18.1587ZM69.0742 19.6304L70.1914 15.1885H71.1851L69.4932 21H68.6875L67.2749 16.5957L65.8999 21H65.0942L63.4077 15.1885H64.396L65.54 19.5391L66.8936 15.1885H67.6938L69.0742 19.6304ZM73.1401 15.1885L73.1724 15.9189C73.6164 15.3604 74.1965 15.0811 74.9126 15.0811C76.1408 15.0811 76.7603 15.7739 76.771 17.1597V21H75.7773V17.1543C75.7738 16.7354 75.6771 16.4256 75.4873 16.2251C75.3011 16.0246 75.0093 15.9243 74.6118 15.9243C74.2896 15.9243 74.0067 16.0103 73.7632 16.1821C73.5197 16.354 73.3299 16.5796 73.1938 16.8589V21H72.2002V15.1885H73.1401ZM79.3491 21H78.3555V12.75H79.3491V21ZM80.6812 18.0405C80.6812 17.4712 80.7922 16.9591 81.0142 16.5044C81.2397 16.0496 81.5513 15.6987 81.9487 15.4517C82.3498 15.2046 82.8063 15.0811 83.3184 15.0811C84.1097 15.0811 84.7489 15.355 85.2358 15.9028C85.7264 16.4507 85.9717 17.1794 85.9717 18.0889V18.1587C85.9717 18.7244 85.8625 19.2329 85.644 19.6841C85.4292 20.1317 85.1195 20.4808 84.7148 20.7314C84.3138 20.9821 83.8519 21.1074 83.3291 21.1074C82.5413 21.1074 81.9022 20.8335 81.4116 20.2856C80.9246 19.7378 80.6812 19.0127 80.6812 18.1104V18.0405ZM81.6802 18.1587C81.6802 18.8032 81.8288 19.3206 82.126 19.7109C82.4268 20.1012 82.8278 20.2964 83.3291 20.2964C83.834 20.2964 84.235 20.0994 84.5322 19.7056C84.8294 19.3081 84.978 18.7531 84.978 18.0405C84.978 17.4032 84.8258 16.8875 84.5215 16.4937C84.2207 16.0962 83.8197 15.8975 83.3184 15.8975C82.8278 15.8975 82.4321 16.0926 82.1313 16.4829C81.8306 16.8732 81.6802 17.4318 81.6802 18.1587ZM90.8057 21C90.7484 20.8854 90.7018 20.6813 90.666 20.3877C90.2041 20.8675 89.6527 21.1074 89.0117 21.1074C88.4388 21.1074 87.9679 20.9463 87.5991 20.624C87.2339 20.2982 87.0513 19.8864 87.0513 19.3887C87.0513 18.7835 87.2804 18.3145 87.7388 17.9814C88.2007 17.6449 88.8488 17.4766 89.6831 17.4766H90.6499V17.02C90.6499 16.6727 90.5461 16.397 90.3384 16.1929C90.1307 15.9852 89.8245 15.8813 89.4199 15.8813C89.0654 15.8813 88.7682 15.9709 88.5283 16.1499C88.2884 16.3289 88.1685 16.5456 88.1685 16.7998H87.1694C87.1694 16.5098 87.2715 16.2305 87.4756 15.9619C87.6833 15.6898 87.9626 15.4749 88.3135 15.3174C88.668 15.1598 89.0565 15.0811 89.479 15.0811C90.1486 15.0811 90.6732 15.2493 91.0527 15.5859C91.4323 15.9189 91.6292 16.3791 91.6436 16.9663V19.6411C91.6436 20.1746 91.7116 20.599 91.8477 20.9141V21H90.8057ZM89.1567 20.2427C89.4683 20.2427 89.7637 20.1621 90.043 20.001C90.3223 19.8398 90.5246 19.6304 90.6499 19.3726V18.1802H89.8711C88.6536 18.1802 88.0449 18.5365 88.0449 19.249C88.0449 19.5605 88.1488 19.804 88.3564 19.9795C88.5641 20.1549 88.8309 20.2427 89.1567 20.2427ZM92.9595 18.0459C92.9595 17.1543 93.1707 16.4382 93.5933 15.8975C94.0158 15.3532 94.569 15.0811 95.2529 15.0811C95.9333 15.0811 96.4722 15.3138 96.8696 15.7793V12.75H97.8633V21H96.9502L96.9019 20.377C96.5044 20.8639 95.9512 21.1074 95.2422 21.1074C94.569 21.1074 94.0194 20.8317 93.5933 20.2803C93.1707 19.7288 92.9595 19.0091 92.9595 18.1211V18.0459ZM93.9531 18.1587C93.9531 18.8175 94.0892 19.3332 94.3613 19.7056C94.6335 20.078 95.0094 20.2642 95.4893 20.2642C96.1195 20.2642 96.5796 19.9813 96.8696 19.4155V16.7461C96.5724 16.1982 96.1159 15.9243 95.5 15.9243C95.013 15.9243 94.6335 16.1123 94.3613 16.4883C94.0892 16.8643 93.9531 17.4211 93.9531 18.1587ZM101.875 18.0405C101.875 17.4712 101.986 16.9591 102.208 16.5044C102.434 16.0496 102.746 15.6987 103.143 15.4517C103.544 15.2046 104.001 15.0811 104.513 15.0811C105.304 15.0811 105.943 15.355 106.43 15.9028C106.921 16.4507 107.166 17.1794 107.166 18.0889V18.1587C107.166 18.7244 107.057 19.2329 106.838 19.6841C106.624 20.1317 106.314 20.4808 105.909 20.7314C105.508 20.9821 105.046 21.1074 104.523 21.1074C103.736 21.1074 103.097 20.8335 102.606 20.2856C102.119 19.7378 101.875 19.0127 101.875 18.1104V18.0405ZM102.875 18.1587C102.875 18.8032 103.023 19.3206 103.32 19.7109C103.621 20.1012 104.022 20.2964 104.523 20.2964C105.028 20.2964 105.429 20.0994 105.727 19.7056C106.024 19.3081 106.172 18.7531 106.172 18.0405C106.172 17.4032 106.02 16.8875 105.716 16.4937C105.415 16.0962 105.014 15.8975 104.513 15.8975C104.022 15.8975 103.626 16.0926 103.326 16.4829C103.025 16.8732 102.875 17.4318 102.875 18.1587ZM109.352 15.1885L109.384 15.9189C109.828 15.3604 110.408 15.0811 111.125 15.0811C112.353 15.0811 112.972 15.7739 112.983 17.1597V21H111.989V17.1543C111.986 16.7354 111.889 16.4256 111.699 16.2251C111.513 16.0246 111.221 15.9243 110.824 15.9243C110.501 15.9243 110.219 16.0103 109.975 16.1821C109.732 16.354 109.542 16.5796 109.406 16.8589V21H108.412V15.1885H109.352ZM118.558 13.7812V15.1885H119.643V15.9565H118.558V19.5605C118.558 19.7933 118.606 19.9688 118.703 20.0869C118.8 20.2015 118.965 20.2588 119.197 20.2588C119.312 20.2588 119.469 20.2373 119.67 20.1943V21C119.409 21.0716 119.154 21.1074 118.907 21.1074C118.463 21.1074 118.128 20.9731 117.903 20.7046C117.677 20.436 117.564 20.0547 117.564 19.5605V15.9565H116.506V15.1885H117.564V13.7812H118.558ZM121.802 15.8921C122.243 15.3514 122.816 15.0811 123.521 15.0811C124.749 15.0811 125.369 15.7739 125.379 17.1597V21H124.386V17.1543C124.382 16.7354 124.285 16.4256 124.096 16.2251C123.91 16.0246 123.618 15.9243 123.22 15.9243C122.898 15.9243 122.615 16.0103 122.372 16.1821C122.128 16.354 121.938 16.5796 121.802 16.8589V21H120.809V12.75H121.802V15.8921ZM129.279 21.1074C128.491 21.1074 127.85 20.8496 127.356 20.334C126.862 19.8148 126.615 19.1219 126.615 18.2554V18.0728C126.615 17.4963 126.724 16.9824 126.942 16.5312C127.164 16.0765 127.472 15.722 127.866 15.4678C128.264 15.21 128.693 15.0811 129.155 15.0811C129.911 15.0811 130.498 15.3299 130.917 15.8276C131.336 16.3254 131.545 17.0379 131.545 17.9653V18.3789H127.608C127.623 18.9518 127.789 19.4155 128.108 19.77C128.43 20.1209 128.838 20.2964 129.333 20.2964C129.683 20.2964 129.981 20.2248 130.224 20.0815C130.468 19.9383 130.681 19.7485 130.863 19.5122L131.47 19.9849C130.983 20.7332 130.253 21.1074 129.279 21.1074ZM129.155 15.8975C128.754 15.8975 128.418 16.0443 128.146 16.3379C127.873 16.6279 127.705 17.0361 127.641 17.5625H130.552V17.4873C130.523 16.9824 130.387 16.5921 130.144 16.3164C129.9 16.0371 129.571 15.8975 129.155 15.8975Z" fill="white"/>
<path d="M56.1924 33.9492H52.5967L51.9131 36H49.7324L53.4375 26.0469H55.3379L59.0635 36H56.8828L56.1924 33.9492ZM53.1504 32.2881H55.6387L54.3877 28.5625L53.1504 32.2881ZM66.1934 32.3701C66.1934 33.5094 65.9336 34.4232 65.4141 35.1113C64.8991 35.7949 64.2018 36.1367 63.3223 36.1367C62.5749 36.1367 61.971 35.877 61.5107 35.3574V38.8438H59.5352V28.6035H61.3672L61.4355 29.3281C61.9141 28.7539 62.5384 28.4668 63.3086 28.4668C64.2201 28.4668 64.9287 28.804 65.4346 29.4785C65.9404 30.153 66.1934 31.0827 66.1934 32.2676V32.3701ZM64.2178 32.2266C64.2178 31.5384 64.0947 31.0075 63.8486 30.6338C63.6071 30.2601 63.2539 30.0732 62.7891 30.0732C62.1693 30.0732 61.7432 30.3102 61.5107 30.7842V33.8125C61.7523 34.3001 62.1829 34.5439 62.8027 34.5439C63.7461 34.5439 64.2178 33.7715 64.2178 32.2266ZM74.082 32.3701C74.082 33.5094 73.8223 34.4232 73.3027 35.1113C72.7878 35.7949 72.0905 36.1367 71.2109 36.1367C70.4635 36.1367 69.8597 35.877 69.3994 35.3574V38.8438H67.4238V28.6035H69.2559L69.3242 29.3281C69.8027 28.7539 70.4271 28.4668 71.1973 28.4668C72.1087 28.4668 72.8174 28.804 73.3232 29.4785C73.8291 30.153 74.082 31.0827 74.082 32.2676V32.3701ZM72.1064 32.2266C72.1064 31.5384 71.9834 31.0075 71.7373 30.6338C71.4958 30.2601 71.1426 30.0732 70.6777 30.0732C70.0579 30.0732 69.6318 30.3102 69.3994 30.7842V33.8125C69.641 34.3001 70.0716 34.5439 70.6914 34.5439C71.6348 34.5439 72.1064 33.7715 72.1064 32.2266ZM84.0898 33.3887C84.0898 33.0013 83.9531 32.7051 83.6797 32.5C83.4062 32.2904 82.9141 32.0716 82.2031 31.8438C81.4922 31.6113 80.9294 31.3835 80.5146 31.1602C79.3844 30.5495 78.8193 29.7269 78.8193 28.6924C78.8193 28.1546 78.9697 27.6761 79.2705 27.2568C79.5758 26.833 80.0111 26.5026 80.5762 26.2656C81.1458 26.0286 81.7839 25.9102 82.4902 25.9102C83.2012 25.9102 83.8346 26.04 84.3906 26.2998C84.9466 26.555 85.3773 26.9173 85.6826 27.3867C85.9925 27.8561 86.1475 28.3893 86.1475 28.9863H84.0967C84.0967 28.5306 83.9531 28.1774 83.666 27.9268C83.3789 27.6715 82.9756 27.5439 82.4561 27.5439C81.9548 27.5439 81.5651 27.651 81.2871 27.8652C81.0091 28.0749 80.8701 28.3529 80.8701 28.6992C80.8701 29.0228 81.0319 29.2939 81.3555 29.5127C81.6836 29.7314 82.1644 29.9365 82.7979 30.1279C83.9645 30.4788 84.8145 30.9141 85.3477 31.4336C85.8809 31.9531 86.1475 32.6003 86.1475 33.375C86.1475 34.2363 85.8216 34.9131 85.1699 35.4053C84.5182 35.8929 83.641 36.1367 82.5381 36.1367C81.7725 36.1367 81.0752 35.9977 80.4463 35.7197C79.8174 35.4372 79.3366 35.0521 79.0039 34.5645C78.6758 34.0768 78.5117 33.5117 78.5117 32.8691H80.5693C80.5693 33.9674 81.2256 34.5166 82.5381 34.5166C83.0257 34.5166 83.4062 34.4186 83.6797 34.2227C83.9531 34.0221 84.0898 33.7441 84.0898 33.3887ZM89.7773 26.7852V28.6035H91.042V30.0527H89.7773V33.7441C89.7773 34.0176 89.8298 34.2135 89.9346 34.332C90.0394 34.4505 90.2399 34.5098 90.5361 34.5098C90.7549 34.5098 90.9486 34.4938 91.1172 34.4619V35.959C90.7298 36.0775 90.3311 36.1367 89.9209 36.1367C88.5355 36.1367 87.8291 35.4372 87.8018 34.0381V30.0527H86.7217V28.6035H87.8018V26.7852H89.7773ZM91.6299 32.2334C91.6299 31.4997 91.7712 30.8457 92.0537 30.2715C92.3363 29.6973 92.7419 29.2529 93.2705 28.9385C93.8037 28.624 94.4212 28.4668 95.123 28.4668C96.1211 28.4668 96.9346 28.7721 97.5635 29.3828C98.1969 29.9935 98.5501 30.8229 98.623 31.8711L98.6367 32.377C98.6367 33.5117 98.32 34.4232 97.6865 35.1113C97.0531 35.7949 96.2031 36.1367 95.1367 36.1367C94.0703 36.1367 93.2181 35.7949 92.5801 35.1113C91.9466 34.4277 91.6299 33.498 91.6299 32.3223V32.2334ZM93.6055 32.377C93.6055 33.0788 93.7376 33.6165 94.002 33.9902C94.2663 34.3594 94.6445 34.5439 95.1367 34.5439C95.6152 34.5439 95.9889 34.3617 96.2578 33.9971C96.5267 33.6279 96.6611 33.04 96.6611 32.2334C96.6611 31.5452 96.5267 31.012 96.2578 30.6338C95.9889 30.2555 95.6107 30.0664 95.123 30.0664C94.64 30.0664 94.2663 30.2555 94.002 30.6338C93.7376 31.0075 93.6055 31.5885 93.6055 32.377ZM104.01 30.4561C103.741 30.4196 103.504 30.4014 103.299 30.4014C102.551 30.4014 102.062 30.6543 101.829 31.1602V36H99.8535V28.6035H101.72L101.774 29.4854C102.171 28.8063 102.72 28.4668 103.422 28.4668C103.641 28.4668 103.846 28.4964 104.037 28.5557L104.01 30.4561ZM108.234 36.1367C107.15 36.1367 106.266 35.804 105.582 35.1387C104.903 34.4733 104.563 33.5869 104.563 32.4795V32.2881C104.563 31.5452 104.707 30.8822 104.994 30.2988C105.281 29.7109 105.687 29.2598 106.211 28.9453C106.74 28.6263 107.341 28.4668 108.016 28.4668C109.027 28.4668 109.823 28.7858 110.401 29.4238C110.985 30.0618 111.276 30.9665 111.276 32.1377V32.9443H106.566C106.63 33.4274 106.822 33.8148 107.141 34.1064C107.464 34.3981 107.872 34.5439 108.364 34.5439C109.125 34.5439 109.72 34.2682 110.148 33.7168L111.119 34.8037C110.823 35.223 110.422 35.5511 109.916 35.7881C109.41 36.0205 108.85 36.1367 108.234 36.1367ZM108.009 30.0664C107.617 30.0664 107.298 30.1986 107.052 30.4629C106.81 30.7272 106.655 31.1055 106.587 31.5977H109.335V31.4404C109.326 31.0029 109.207 30.6657 108.979 30.4287C108.752 30.1872 108.428 30.0664 108.009 30.0664Z" fill="white"/>
<path d="M26.5262 36C22.9545 35.9794 20 28.6879 20 24.9745C20 18.9087 24.5502 17.5808 26.3038 17.5808C27.094 17.5808 27.9379 17.8911 28.6822 18.1658C29.2027 18.3573 29.7409 18.5551 30.0403 18.5551C30.2195 18.5551 30.6418 18.3869 31.0146 18.2393C31.8097 17.9227 32.7991 17.5293 33.9512 17.5293C33.9533 17.5293 33.9561 17.5293 33.9581 17.5293C34.8184 17.5293 37.4268 17.7181 38.9951 20.0733L39.3624 20.6253L38.8337 21.0243C38.0785 21.5942 36.7004 22.6338 36.7004 24.6931C36.7004 27.132 38.2611 28.07 39.0109 28.5211C39.3418 28.7202 39.6844 28.9255 39.6844 29.3746C39.6844 29.6678 37.3444 35.9636 33.9464 35.9636C33.1149 35.9636 32.5272 35.7137 32.0088 35.4933C31.4842 35.2701 31.0317 35.0779 30.284 35.0779C29.905 35.0779 29.4257 35.2571 28.9183 35.4473C28.2249 35.7061 27.4401 36 26.5496 36H26.5262Z" fill="white"/>
<path d="M34.313 12C34.4015 15.1911 32.1194 17.4049 29.84 17.266C29.4644 14.7195 32.1192 12 34.313 12Z" fill="white"/>
</svg>
