<svg width="147" height="48" viewBox="0 0 147 48" fill="none" xmlns="http://www.w3.org/2000/svg">
<rect width="147" height="48" rx="5" fill="#191413"/>
<path d="M62.3809 20.708H59.332V29H57.2812V20.708H54.2734V19.0469H62.3809V20.708ZM66.2158 29.1367C65.1312 29.1367 64.2471 28.804 63.5635 28.1387C62.8844 27.4733 62.5449 26.5869 62.5449 25.4795V25.2881C62.5449 24.5452 62.6885 23.8822 62.9756 23.2988C63.2627 22.7109 63.6683 22.2598 64.1924 21.9453C64.721 21.6263 65.3226 21.4668 65.9971 21.4668C67.0088 21.4668 67.804 21.7858 68.3828 22.4238C68.9661 23.0618 69.2578 23.9665 69.2578 25.1377V25.9443H64.5479C64.6117 26.4274 64.8031 26.8148 65.1221 27.1064C65.4456 27.3981 65.8535 27.5439 66.3457 27.5439C67.1068 27.5439 67.7015 27.2682 68.1299 26.7168L69.1006 27.8037C68.8044 28.223 68.4033 28.5511 67.8975 28.7881C67.3916 29.0205 66.8311 29.1367 66.2158 29.1367ZM65.9902 23.0664C65.5983 23.0664 65.2793 23.1986 65.0332 23.4629C64.7917 23.7272 64.6367 24.1055 64.5684 24.5977H67.3164V24.4404C67.3073 24.0029 67.1888 23.6657 66.9609 23.4287C66.7331 23.1872 66.4095 23.0664 65.9902 23.0664ZM72.4707 29H70.4883V18.5H72.4707V29ZM77.5088 29.1367C76.4242 29.1367 75.54 28.804 74.8564 28.1387C74.1774 27.4733 73.8379 26.5869 73.8379 25.4795V25.2881C73.8379 24.5452 73.9814 23.8822 74.2686 23.2988C74.5557 22.7109 74.9613 22.2598 75.4854 21.9453C76.014 21.6263 76.6156 21.4668 77.29 21.4668C78.3018 21.4668 79.097 21.7858 79.6758 22.4238C80.2591 23.0618 80.5508 23.9665 80.5508 25.1377V25.9443H75.8408C75.9046 26.4274 76.096 26.8148 76.415 27.1064C76.7386 27.3981 77.1465 27.5439 77.6387 27.5439C78.3997 27.5439 78.9945 27.2682 79.4229 26.7168L80.3936 27.8037C80.0973 28.223 79.6963 28.5511 79.1904 28.7881C78.6846 29.0205 78.124 29.1367 77.5088 29.1367ZM77.2832 23.0664C76.8913 23.0664 76.5723 23.1986 76.3262 23.4629C76.0846 23.7272 75.9297 24.1055 75.8613 24.5977H78.6094V24.4404C78.6003 24.0029 78.4818 23.6657 78.2539 23.4287C78.026 23.1872 77.7025 23.0664 77.2832 23.0664ZM81.3916 25.2471C81.3916 24.1123 81.6605 23.1986 82.1982 22.5059C82.7406 21.8132 83.4697 21.4668 84.3857 21.4668C85.1969 21.4668 85.8281 21.7448 86.2793 22.3008L86.3613 21.6035H88.1523V28.7539C88.1523 29.401 88.0042 29.9639 87.708 30.4424C87.4163 30.9209 87.0039 31.2855 86.4707 31.5361C85.9375 31.7868 85.3132 31.9121 84.5977 31.9121C84.0553 31.9121 83.5267 31.8027 83.0117 31.584C82.4967 31.3698 82.1071 31.0918 81.8428 30.75L82.7178 29.5469C83.21 30.0983 83.807 30.374 84.5088 30.374C85.0329 30.374 85.4408 30.2327 85.7324 29.9502C86.0241 29.6722 86.1699 29.2757 86.1699 28.7607V28.3643C85.7142 28.8792 85.1149 29.1367 84.3721 29.1367C83.4834 29.1367 82.7633 28.7904 82.2119 28.0977C81.665 27.4004 81.3916 26.4775 81.3916 25.3291V25.2471ZM83.3672 25.3906C83.3672 26.0605 83.5016 26.5869 83.7705 26.9697C84.0394 27.348 84.4085 27.5371 84.8779 27.5371C85.4795 27.5371 85.9102 27.3115 86.1699 26.8604V23.75C85.9056 23.2988 85.4795 23.0732 84.8916 23.0732C84.4176 23.0732 84.0439 23.2669 83.7705 23.6543C83.5016 24.0417 83.3672 24.6204 83.3672 25.3906ZM93.833 23.4561C93.5641 23.4196 93.3271 23.4014 93.1221 23.4014C92.3747 23.4014 91.8848 23.6543 91.6523 24.1602V29H89.6768V21.6035H91.543L91.5977 22.4854C91.9941 21.8063 92.5433 21.4668 93.2451 21.4668C93.4639 21.4668 93.6689 21.4964 93.8604 21.5557L93.833 23.4561ZM98.8711 29C98.7799 28.8223 98.7139 28.6012 98.6729 28.3369C98.1943 28.8701 97.5723 29.1367 96.8066 29.1367C96.082 29.1367 95.4805 28.9271 95.002 28.5078C94.528 28.0885 94.291 27.5599 94.291 26.9219C94.291 26.138 94.5804 25.5365 95.1592 25.1172C95.7425 24.6979 96.5833 24.486 97.6816 24.4814H98.5908V24.0576C98.5908 23.7158 98.502 23.4424 98.3242 23.2373C98.151 23.0322 97.8753 22.9297 97.4971 22.9297C97.1644 22.9297 96.9023 23.0094 96.7109 23.1689C96.5241 23.3285 96.4307 23.5472 96.4307 23.8252H94.4551C94.4551 23.3968 94.5872 23.0003 94.8516 22.6357C95.1159 22.2712 95.4896 21.9863 95.9727 21.7812C96.4557 21.5716 96.998 21.4668 97.5996 21.4668C98.5111 21.4668 99.2334 21.6969 99.7666 22.1572C100.304 22.613 100.573 23.2555 100.573 24.085V27.291C100.578 27.9928 100.676 28.5238 100.867 28.8838V29H98.8711ZM97.2373 27.626C97.529 27.626 97.7979 27.5622 98.0439 27.4346C98.29 27.3024 98.4723 27.127 98.5908 26.9082V25.6367H97.8525C96.8636 25.6367 96.3372 25.9785 96.2734 26.6621L96.2666 26.7783C96.2666 27.0244 96.3532 27.2272 96.5264 27.3867C96.6995 27.5462 96.9365 27.626 97.2373 27.626ZM103.943 21.6035L104.005 22.4307C104.529 21.7881 105.238 21.4668 106.131 21.4668C107.083 21.4668 107.737 21.8428 108.093 22.5947C108.612 21.8428 109.353 21.4668 110.314 21.4668C111.117 21.4668 111.714 21.7015 112.105 22.1709C112.497 22.6357 112.693 23.3376 112.693 24.2764V29H110.711V24.2832C110.711 23.8639 110.629 23.5586 110.465 23.3672C110.301 23.1712 110.011 23.0732 109.597 23.0732C109.004 23.0732 108.594 23.3558 108.366 23.9209L108.373 29H106.397V24.29C106.397 23.8617 106.313 23.5518 106.145 23.3604C105.976 23.1689 105.689 23.0732 105.283 23.0732C104.723 23.0732 104.317 23.3057 104.066 23.7705V29H102.091V21.6035H103.943Z" fill="white"/>
<path d="M39.5522 14.9959C39.3115 15.0135 39.0751 15.0699 38.8525 15.1632H38.8495C38.6357 15.2479 37.6195 15.6754 36.0745 16.3234L30.538 18.6552C26.5652 20.3277 22.66 21.9747 22.66 21.9747L22.7065 21.9567C22.7065 21.9567 22.4372 22.0452 22.156 22.2379C21.9822 22.3485 21.8327 22.4932 21.7165 22.6632C21.5785 22.8657 21.4675 23.1754 21.5087 23.4957C21.5762 24.0372 21.9272 24.3619 22.1792 24.5412C22.4342 24.7227 22.6772 24.8074 22.6772 24.8074H22.6832L26.3455 26.0412C26.5097 26.5684 27.4615 29.6974 27.6902 30.4182C27.8252 30.8487 27.9565 31.1179 28.1207 31.3234C28.2002 31.4284 28.2932 31.5162 28.405 31.5867C28.4631 31.6205 28.525 31.6472 28.5895 31.6662L28.552 31.6572C28.5632 31.6602 28.5722 31.6692 28.5805 31.6722C28.6105 31.6804 28.6307 31.6834 28.669 31.6894C29.2487 31.8649 29.7145 31.5049 29.7145 31.5049L29.7407 31.4839L31.903 29.5152L35.527 32.2954L35.6095 32.3307C36.3647 32.6622 37.1297 32.4777 37.534 32.1522C37.9412 31.8244 38.0995 31.4052 38.0995 31.4052L38.1257 31.3377L40.9262 16.9909C41.0057 16.6369 41.026 16.3054 40.9382 15.9837C40.8477 15.6581 40.6388 15.378 40.3525 15.1984C40.112 15.0523 39.8332 14.9817 39.5522 14.9959V14.9959ZM39.4765 16.5334C39.4735 16.5807 39.4825 16.5754 39.4615 16.6662V16.6744L36.6872 30.8719C36.6752 30.8922 36.655 30.9364 36.5995 30.9807C36.541 31.0272 36.4945 31.0564 36.2507 30.9597L31.8182 27.5614L29.1407 30.0019L29.7032 26.4094L36.9452 19.6594C37.2437 19.3819 37.144 19.3234 37.144 19.3234C37.165 18.9829 36.6932 19.2237 36.6932 19.2237L27.5612 24.8809L27.5582 24.8659L23.1812 23.3922V23.3892L23.17 23.3869C23.1776 23.3844 23.1852 23.3814 23.1925 23.3779L23.2165 23.3659L23.2397 23.3577C23.2397 23.3577 27.148 21.7107 31.1207 20.0382C33.1097 19.2004 35.1137 18.3567 36.655 17.7057C38.1962 17.0584 39.3355 16.5837 39.4 16.5582C39.4615 16.5342 39.4322 16.5342 39.4765 16.5342V16.5334Z" fill="white"/>
</svg>
